<svg id="visual" viewBox="0 0 900 450" width="900" height="450" xmlns="http://www.w3.org/2000/svg" xmlns:xlink="http://www.w3.org/1999/xlink" version="1.1"><rect x="0" y="0" width="900" height="450" fill="#1a1e23"></rect><defs><linearGradient id="grad1_0" x1="50%" y1="100%" x2="100%" y2="0%"><stop offset="10%" stop-color="#1a1e23" stop-opacity="1"></stop><stop offset="90%" stop-color="#1a1e23" stop-opacity="1"></stop></linearGradient></defs><defs><linearGradient id="grad2_0" x1="0%" y1="100%" x2="50%" y2="0%"><stop offset="10%" stop-color="#1a1e23" stop-opacity="1"></stop><stop offset="90%" stop-color="#1a1e23" stop-opacity="1"></stop></linearGradient></defs><g transform="translate(900, 450)"><path d="M-225 0C-220.3 -41.4 -215.6 -82.9 -194.9 -112.5C-174.1 -142.1 -137.2 -159.9 -102 -176.7C-66.8 -193.4 -33.4 -209.2 0 -225L0 0Z" fill="#12f7d5"></path></g><g transform="translate(0, 0)"><path d="M225 0C220.1 41 215.1 82 194.9 112.5C174.6 143 139 163.1 104 180.1C69 197.1 34.5 211.1 0 225L0 0Z" fill="#12f7d5"></path></g></svg>