<svg id="visual" viewBox="0 0 960 540" width="960" height="540" xmlns="http://www.w3.org/2000/svg" xmlns:xlink="http://www.w3.org/1999/xlink" version="1.1"><rect width="960" height="540" fill="#1a1e23"></rect><g><g transform="translate(168 2)"><path d="M0 -28.7L28.7 0L0 28.7L-28.7 0Z" fill="none" stroke="#12f7d5" stroke-width="2"></path></g><g transform="translate(573 311)"><path d="M0 -20L20 0L0 20L-20 0Z" fill="none" stroke="#12f7d5" stroke-width="2"></path></g><g transform="translate(140 303)"><path d="M0 -6L6 0L0 6L-6 0Z" fill="none" stroke="#12f7d5" stroke-width="2"></path></g><g transform="translate(731 392)"><path d="M0 -4L4 0L0 4L-4 0Z" fill="none" stroke="#12f7d5" stroke-width="2"></path></g><g transform="translate(716 240)"><path d="M0 -3L3 0L0 3L-3 0Z" fill="none" stroke="#12f7d5" stroke-width="2"></path></g><g transform="translate(219 72)"><path d="M0 -3L3 0L0 3L-3 0Z" fill="none" stroke="#12f7d5" stroke-width="2"></path></g><g transform="translate(803 79)"><path d="M0 -25L25 0L0 25L-25 0Z" fill="none" stroke="#12f7d5" stroke-width="2"></path></g><g transform="translate(606 160)"><path d="M0 -27L27 0L0 27L-27 0Z" fill="none" stroke="#12f7d5" stroke-width="2"></path></g><g transform="translate(694 440)"><path d="M0 -12L12 0L0 12L-12 0Z" fill="none" stroke="#12f7d5" stroke-width="2"></path></g><g transform="translate(576 401)"><path d="M0 -21L21 0L0 21L-21 0Z" fill="none" stroke="#12f7d5" stroke-width="2"></path></g><g transform="translate(109 149)"><path d="M0 -17L17 0L0 17L-17 0Z" fill="none" stroke="#12f7d5" stroke-width="2"></path></g><g transform="translate(364 297)"><path d="M0 -27L27 0L0 27L-27 0Z" fill="none" stroke="#12f7d5" stroke-width="2"></path></g><g transform="translate(210 452)"><path d="M0 -19L19 0L0 19L-19 0Z" stroke="#12f7d5" fill="none" stroke-width="2"></path></g><g transform="translate(615 87)"><path d="M0 -21L21 0L0 21L-21 0Z" stroke="#12f7d5" fill="none" stroke-width="2"></path></g><g transform="translate(822 231)"><path d="M0 -11L11 0L0 11L-11 0Z" stroke="#12f7d5" fill="none" stroke-width="2"></path></g><g transform="translate(76 508)"><path d="M0 -12L12 0L0 12L-12 0Z" stroke="#12f7d5" fill="none" stroke-width="2"></path></g><g transform="translate(441 324)"><path d="M0 -21L21 0L0 21L-21 0Z" stroke="#12f7d5" fill="none" stroke-width="2"></path></g><g transform="translate(509 22)"><path d="M0 -6L6 0L0 6L-6 0Z" stroke="#12f7d5" fill="none" stroke-width="2"></path></g><g transform="translate(634 438)"><path d="M0 -3L3 0L0 3L-3 0Z" stroke="#12f7d5" fill="none" stroke-width="2"></path></g><g transform="translate(760 188)"><path d="M0 -26L26 0L0 26L-26 0Z" stroke="#12f7d5" fill="none" stroke-width="2"></path></g><g transform="translate(229 178)"><path d="M0 -12L12 0L0 12L-12 0Z" stroke="#12f7d5" fill="none" stroke-width="2"></path></g><g transform="translate(595 227)"><path d="M0 -27L27 0L0 27L-27 0Z" stroke="#12f7d5" fill="none" stroke-width="2"></path></g><g transform="translate(663 509)"><path d="M0 -26L26 0L0 26L-26 0Z" stroke="#12f7d5" fill="none" stroke-width="2"></path></g><g transform="translate(731 331)"><path d="M0 -10L10 0L0 10L-10 0Z" stroke="#12f7d5" fill="none" stroke-width="2"></path></g><g transform="translate(912 190)"><path d="M0 -14L14 0L0 14L-14 0Z" stroke="#12f7d5" fill="none" stroke-width="2"></path></g><g transform="translate(39 106)"><path d="M0 -26L26 0L0 26L-26 0Z" stroke="#12f7d5" fill="none" stroke-width="2"></path></g><g transform="translate(559 525)"><path d="M0 -23L23 0L0 23L-23 0Z" stroke="#12f7d5" fill="none" stroke-width="2"></path></g><g transform="translate(748 118)"><path d="M0 -19L19 0L0 19L-19 0Z" stroke="#12f7d5" fill="none" stroke-width="2"></path></g><g transform="translate(419 11)"><path d="M0 -5L5 0L0 5L-5 0Z" stroke="#12f7d5" fill="none" stroke-width="2"></path></g><g transform="translate(338 529)"><path d="M0 -24L24 0L0 24L-24 0Z" stroke="#12f7d5" fill="none" stroke-width="2"></path></g><g transform="translate(925 97)"><path d="M0 -26L26 0L0 26L-26 0Z" stroke="#12f7d5" fill="none" stroke-width="2"></path></g><g transform="translate(90 57)"><path d="M0 -3L3 0L0 3L-3 0Z" stroke="#12f7d5" fill="none" stroke-width="2"></path></g><g transform="translate(652 301)"><path d="M0 -4L4 0L0 4L-4 0Z" stroke="#12f7d5" fill="none" stroke-width="2"></path></g><g transform="translate(176 518)"><path d="M0 -16L16 0L0 16L-16 0Z" stroke="#12f7d5" fill="none" stroke-width="2"></path></g><g transform="translate(343 423)"><path d="M0 -4L4 0L0 4L-4 0Z" stroke="#12f7d5" fill="none" stroke-width="2"></path></g><g transform="translate(19 536)"><path d="M0 -15L15 0L0 15L-15 0Z" stroke="#12f7d5" fill="none" stroke-width="2"></path></g><g transform="translate(38 329)"><path d="M0 -17L17 0L0 17L-17 0Z" stroke="#12f7d5" fill="none" stroke-width="2"></path></g><g transform="translate(440 250)"><path d="M0 -10L10 0L0 10L-10 0Z" stroke="#12f7d5" fill="none" stroke-width="2"></path></g><g transform="translate(190 386)"><path d="M0 -11L11 0L0 11L-11 0Z" stroke="#12f7d5" fill="none" stroke-width="2"></path></g><g transform="translate(885 429)"><path d="M0 -6L6 0L0 6L-6 0Z" stroke="#12f7d5" fill="none" stroke-width="2"></path></g><g transform="translate(784 5)"><path d="M0 -19L19 0L0 19L-19 0Z" stroke="#12f7d5" fill="none" stroke-width="2"></path></g><g transform="translate(410 87)"><path d="M0 -20L20 0L0 20L-20 0Z" stroke="#12f7d5" fill="none" stroke-width="2"></path></g><g transform="translate(714 66)"><path d="M0 -26L26 0L0 26L-26 0Z" stroke="#12f7d5" fill="none" stroke-width="2"></path></g><g transform="translate(328 354)"><path d="M0 -3L3 0L0 3L-3 0Z" stroke="#12f7d5" fill="none" stroke-width="2"></path></g><g transform="translate(393 509)"><path d="M0 -24L24 0L0 24L-24 0Z" stroke="#12f7d5" fill="none" stroke-width="2"></path></g><g transform="translate(507 431)"><path d="M0 -17L17 0L0 17L-17 0Z" stroke="#12f7d5" fill="none" stroke-width="2"></path></g><g transform="translate(22 30)"><path d="M0 -10L10 0L0 10L-10 0Z" stroke="#12f7d5" fill="none" stroke-width="2"></path></g><g transform="translate(800 431)"><path d="M0 -21L21 0L0 21L-21 0Z" stroke="#12f7d5" fill="none" stroke-width="2"></path></g><g transform="translate(64 250)"><path d="M0 -12L12 0L0 12L-12 0Z" stroke="#12f7d5" fill="none" stroke-width="2"></path></g><g transform="translate(336 10)"><path d="M0 -5L5 0L0 5L-5 0Z" stroke="#12f7d5" fill="none" stroke-width="2"></path></g><g transform="translate(598 31)"><path d="M0 -7L7 0L0 7L-7 0Z" stroke="#12f7d5" fill="none" stroke-width="2"></path></g><g transform="translate(614 355)"><path d="M0 -21L21 0L0 21L-21 0Z" stroke="#12f7d5" fill="none" stroke-width="2"></path></g><g transform="translate(33 431)"><path d="M0 -12L12 0L0 12L-12 0Z" stroke="#12f7d5" fill="none" stroke-width="2"></path></g><g transform="translate(3 216)"><path d="M0 -26L26 0L0 26L-26 0Z" stroke="#12f7d5" fill="none" stroke-width="2"></path></g><g transform="translate(747 468)"><path d="M0 -23L23 0L0 23L-23 0Z" stroke="#12f7d5" fill="none" stroke-width="2"></path></g><g transform="translate(265 273)"><path d="M0 -8L8 0L0 8L-8 0Z" stroke="#12f7d5" fill="none" stroke-width="2"></path></g><g transform="translate(344 67)"><path d="M0 -20L20 0L0 20L-20 0Z" stroke="#12f7d5" fill="none" stroke-width="2"></path></g><g transform="translate(856 155)"><path d="M0 -11L11 0L0 11L-11 0Z" stroke="#12f7d5" fill="none" stroke-width="2"></path></g><g transform="translate(929 326)"><path d="M0 -14L14 0L0 14L-14 0Z" stroke="#12f7d5" fill="none" stroke-width="2"></path></g><g transform="translate(533 244)"><path d="M0 -19L19 0L0 19L-19 0Z" stroke="#12f7d5" fill="none" stroke-width="2"></path></g><g transform="translate(308 224)"><path d="M0 -11L11 0L0 11L-11 0Z" stroke="#12f7d5" fill="none" stroke-width="2"></path></g><g transform="translate(513 350)"><path d="M0 -23L23 0L0 23L-23 0Z" stroke="#12f7d5" fill="none" stroke-width="2"></path></g><g transform="translate(490 143)"><path d="M0 -24L24 0L0 24L-24 0Z" stroke="#12f7d5" fill="none" stroke-width="2"></path></g><g transform="translate(861 338)"><path d="M0 -8L8 0L0 8L-8 0Z" stroke="#12f7d5" fill="none" stroke-width="2"></path></g><g transform="translate(444 447)"><path d="M0 -21L21 0L0 21L-21 0Z" stroke="#12f7d5" fill="none" stroke-width="2"></path></g><g transform="translate(929 481)"><path d="M0 -11L11 0L0 11L-11 0Z" stroke="#12f7d5" fill="none" stroke-width="2"></path></g><g transform="translate(798 501)"><path d="M0 -4L4 0L0 4L-4 0Z" stroke="#12f7d5" fill="none" stroke-width="2"></path></g><g transform="translate(426 380)"><path d="M0 -7L7 0L0 7L-7 0Z" stroke="#12f7d5" fill="none" stroke-width="2"></path></g><g transform="translate(119 384)"><path d="M0 -12L12 0L0 12L-12 0Z" stroke="#12f7d5" fill="none" stroke-width="2"></path></g><g transform="translate(280 462)"><path d="M0 -23L23 0L0 23L-23 0Z" stroke="#12f7d5" fill="none" stroke-width="2"></path></g><g transform="translate(265 393)"><path d="M0 -16L16 0L0 16L-16 0Z" stroke="#12f7d5" fill="none" stroke-width="2"></path></g><g transform="translate(958 151)"><path d="M0 -18L18 0L0 18L-18 0Z" stroke="#12f7d5" fill="none" stroke-width="2"></path></g><g transform="translate(861 506)"><path d="M0 -15L15 0L0 15L-15 0Z" stroke="#12f7d5" fill="none" stroke-width="2"></path></g><g transform="translate(346 144)"><path d="M0 -14L14 0L0 14L-14 0Z" stroke="#12f7d5" fill="none" stroke-width="2"></path></g><g transform="translate(675 379)"><path d="M0 -25L25 0L0 25L-25 0Z" stroke="#12f7d5" fill="none" stroke-width="2"></path></g><g transform="translate(540 79)"><path d="M0 -18L18 0L0 18L-18 0Z" stroke="#12f7d5" fill="none" stroke-width="2"></path></g><g transform="translate(135 232)"><path d="M0 -14L14 0L0 14L-14 0Z" stroke="#12f7d5" fill="none" stroke-width="2"></path></g><g transform="translate(276 103)"><path d="M0 -6L6 0L0 6L-6 0Z" stroke="#12f7d5" fill="none" stroke-width="2"></path></g><g transform="translate(722 519)"><path d="M0 -9L9 0L0 9L-9 0Z" stroke="#12f7d5" fill="none" stroke-width="2"></path></g><g transform="translate(891 271)"><path d="M0 -16L16 0L0 16L-16 0Z" stroke="#12f7d5" fill="none" stroke-width="2"></path></g><g transform="translate(459 532)"><path d="M0 -20L20 0L0 20L-20 0Z" stroke="#12f7d5" fill="none" stroke-width="2"></path></g><g transform="translate(810 309)"><path d="M0 -25L25 0L0 25L-25 0Z" stroke="#12f7d5" fill="none" stroke-width="2"></path></g><g transform="translate(808 374)"><path d="M0 -7L7 0L0 7L-7 0Z" stroke="#12f7d5" fill="none" stroke-width="2"></path></g><g transform="translate(466 66)"><path d="M0 -10L10 0L0 10L-10 0Z" stroke="#12f7d5" fill="none" stroke-width="2"></path></g><g transform="translate(697 166)"><path d="M0 -7L7 0L0 7L-7 0Z" stroke="#12f7d5" fill="none" stroke-width="2"></path></g><g transform="translate(158 91)"><path d="M0 -7L7 0L0 7L-7 0Z" stroke="#12f7d5" fill="none" stroke-width="2"></path></g><g transform="translate(702 7)"><path d="M0 -15L15 0L0 15L-15 0Z" stroke="#12f7d5" fill="none" stroke-width="2"></path></g><g transform="translate(930 36)"><path d="M0 -14L14 0L0 14L-14 0Z" stroke="#12f7d5" fill="none" stroke-width="2"></path></g><g transform="translate(206 262)"><path d="M0 -18L18 0L0 18L-18 0Z" stroke="#12f7d5" fill="none" stroke-width="2"></path></g><g transform="translate(403 171)"><path d="M0 -11L11 0L0 11L-11 0Z" stroke="#12f7d5" fill="none" stroke-width="2"></path></g><g transform="translate(259 335)"><path d="M0 -8L8 0L0 8L-8 0Z" stroke="#12f7d5" fill="none" stroke-width="2"></path></g><g transform="translate(874 70)"><path d="M0 -17L17 0L0 17L-17 0Z" stroke="#12f7d5" fill="none" stroke-width="2"></path></g><g transform="translate(278 533)"><path d="M0 -11L11 0L0 11L-11 0Z" stroke="#12f7d5" fill="none" stroke-width="2"></path></g><g transform="translate(263 8)"><path d="M0 -13L13 0L0 13L-13 0Z" stroke="#12f7d5" fill="none" stroke-width="2"></path></g><g transform="translate(544 171)"><path d="M0 -14L14 0L0 14L-14 0Z" stroke="#12f7d5" fill="none" stroke-width="2"></path></g><g transform="translate(144 467)"><path d="M0 -6L6 0L0 6L-6 0Z" stroke="#12f7d5" fill="none" stroke-width="2"></path></g><g transform="translate(50 167)"><path d="M0 -15L15 0L0 15L-15 0Z" stroke="#12f7d5" fill="none" stroke-width="2"></path></g><g transform="translate(376 231)"><path d="M0 -10L10 0L0 10L-10 0Z" stroke="#12f7d5" fill="none" stroke-width="2"></path></g><g transform="translate(936 394)"><path d="M0 -7L7 0L0 7L-7 0Z" stroke="#12f7d5" fill="none" stroke-width="2"></path></g><g transform="translate(958 253)"><path d="M0 -9L9 0L0 9L-9 0Z" stroke="#12f7d5" fill="none" stroke-width="2"></path></g><g transform="translate(658 209)"><path d="M0 -22L22 0L0 22L-22 0Z" stroke="#12f7d5" fill="none" stroke-width="2"></path></g><g transform="translate(171 175)"><path d="M0 -8L8 0L0 8L-8 0Z" stroke="#12f7d5" fill="none" stroke-width="2"></path></g><g transform="translate(950 538)"><path d="M0 -21L21 0L0 21L-21 0Z" stroke="#12f7d5" fill="none" stroke-width="2"></path></g><g transform="translate(848 2)"><path d="M0 -19L19 0L0 19L-19 0Z" stroke="#12f7d5" fill="none" stroke-width="2"></path></g><g transform="translate(487 203)"><path d="M0 -6L6 0L0 6L-6 0Z" stroke="#12f7d5" fill="none" stroke-width="2"></path></g><g transform="translate(489 282)"><path d="M0 -27L27 0L0 27L-27 0Z" stroke="#12f7d5" fill="none" stroke-width="2"></path></g><g transform="translate(766 269)"><path d="M0 -3L3 0L0 3L-3 0Z" stroke="#12f7d5" fill="none" stroke-width="2"></path></g><g transform="translate(91 438)"><path d="M0 -3L3 0L0 3L-3 0Z" stroke="#12f7d5" fill="none" stroke-width="2"></path></g><g transform="translate(558 465)"><path d="M0 -8L8 0L0 8L-8 0Z" stroke="#12f7d5" fill="none" stroke-width="2"></path></g><g transform="translate(8 278)"><path d="M0 -12L12 0L0 12L-12 0Z" stroke="#12f7d5" fill="none" stroke-width="2"></path></g><g transform="translate(507 497)"><path d="M0 -6L6 0L0 6L-6 0Z" stroke="#12f7d5" fill="none" stroke-width="2"></path></g><g transform="translate(657 43)"><path d="M0 -10L10 0L0 10L-10 0Z" stroke="#12f7d5" fill="none" stroke-width="2"></path></g><g transform="translate(671 111)"><path d="M0 -20L20 0L0 20L-20 0Z" stroke="#12f7d5" fill="none" stroke-width="2"></path></g></g></svg>