<svg id="visual" viewBox="0 0 900 450" width="900" height="450" xmlns="http://www.w3.org/2000/svg" xmlns:xlink="http://www.w3.org/1999/xlink" version="1.1"><rect x="0" y="0" width="900" height="450" fill="#1a1e23"></rect><defs><linearGradient id="grad1_0" x1="50%" y1="0%" x2="100%" y2="100%"><stop offset="10%" stop-color="#1a1e23" stop-opacity="1"></stop><stop offset="90%" stop-color="#1a1e23" stop-opacity="1"></stop></linearGradient></defs><defs><linearGradient id="grad2_0" x1="0%" y1="0%" x2="50%" y2="100%"><stop offset="10%" stop-color="#1a1e23" stop-opacity="1"></stop><stop offset="90%" stop-color="#1a1e23" stop-opacity="1"></stop></linearGradient></defs><g transform="translate(900, 0)"><path d="M0 225C-41.4 220.3 -82.9 215.6 -112.5 194.9C-142.1 174.1 -159.9 137.2 -176.7 102C-193.4 66.8 -209.2 33.4 -225 0L0 0Z" fill="#12f7d5"></path></g><g transform="translate(0, 450)"><path d="M0 -225C41 -220.1 82 -215.1 112.5 -194.9C143 -174.6 163.1 -139 180.1 -104C197.1 -69 211.1 -34.5 225 0L0 0Z" fill="#12f7d5"></path></g></svg>