<svg id="visual" viewBox="0 0 900 600" width="900" height="600" xmlns="http://www.w3.org/2000/svg" xmlns:xlink="http://www.w3.org/1999/xlink" version="1.1"><rect x="0" y="0" width="900" height="600" fill="#1a1e23"></rect><g fill="none" stroke="#12f7d5" stroke-width="2"><circle r="23" cx="368" cy="407"></circle><circle r="9" cx="272" cy="32"></circle><circle r="13" cx="814" cy="348"></circle><circle r="14" cx="322" cy="312"></circle><circle r="21" cx="145" cy="508"></circle><circle r="11" cx="518" cy="45"></circle><circle r="8" cx="488" cy="89"></circle><circle r="15" cx="491" cy="228"></circle><circle r="11" cx="634" cy="182"></circle><circle r="14" cx="358" cy="571"></circle><circle r="8" cx="664" cy="529"></circle><circle r="10" cx="624" cy="456"></circle><circle r="14" cx="720" cy="225"></circle><circle r="20" cx="275" cy="161"></circle><circle r="11" cx="627" cy="308"></circle><circle r="12" cx="270" cy="257"></circle><circle r="18" cx="53" cy="44"></circle><circle r="17" cx="643" cy="53"></circle><circle r="8" cx="188" cy="51"></circle><circle r="8" cx="682" cy="472"></circle><circle r="9" cx="697" cy="280"></circle><circle r="12" cx="743" cy="517"></circle><circle r="12" cx="516" cy="487"></circle><circle r="20" cx="269" cy="81"></circle><circle r="21" cx="44" cy="312"></circle><circle r="17" cx="538" cy="410"></circle><circle r="20" cx="325" cy="37"></circle><circle r="10" cx="611" cy="403"></circle><circle r="16" cx="423" cy="156"></circle><circle r="16" cx="201" cy="197"></circle><circle r="12" cx="231" cy="389"></circle><circle r="18" cx="778" cy="180"></circle><circle r="9" cx="406" cy="548"></circle><circle r="11" cx="312" cy="464"></circle><circle r="21" cx="201" cy="288"></circle><circle r="20" cx="123" cy="380"></circle><circle r="17" cx="559" cy="511"></circle><circle r="13" cx="482" cy="146"></circle><circle r="13" cx="760" cy="363"></circle><circle r="20" cx="555" cy="352"></circle><circle r="17" cx="118" cy="331"></circle><circle r="8" cx="805" cy="517"></circle><circle r="17" cx="494" cy="313"></circle><circle r="9" cx="866" cy="557"></circle><circle r="19" cx="533" cy="122"></circle><circle r="18" cx="432" cy="290"></circle><circle r="20" cx="870" cy="98"></circle><circle r="19" cx="769" cy="125"></circle><circle r="15" cx="126" cy="206"></circle><circle r="20" cx="83" cy="265"></circle><circle r="10" cx="312" cy="216"></circle><circle r="13" cx="100" cy="426"></circle><circle r="17" cx="402" cy="57"></circle><circle r="16" cx="772" cy="34"></circle><circle r="16" cx="164" cy="572"></circle><circle r="13" cx="333" cy="111"></circle><circle r="14" cx="806" cy="236"></circle><circle r="15" cx="128" cy="90"></circle><circle r="17" cx="436" cy="212"></circle><circle r="12" cx="659" cy="239"></circle><circle r="18" cx="412" cy="387"></circle><circle r="14" cx="731" cy="73"></circle><circle r="18" cx="605" cy="544"></circle><circle r="14" cx="749" cy="456"></circle><circle r="15" cx="579" cy="241"></circle><circle r="12" cx="703" cy="421"></circle><circle r="11" cx="219" cy="465"></circle><circle r="17" cx="52" cy="104"></circle><circle r="17" cx="48" cy="430"></circle><circle r="20" cx="583" cy="129"></circle><circle r="9" cx="859" cy="168"></circle><circle r="14" cx="819" cy="94"></circle><circle r="14" cx="869" cy="28"></circle><circle r="15" cx="445" cy="426"></circle><circle r="9" cx="142" cy="160"></circle><circle r="14" cx="258" cy="313"></circle><circle r="17" cx="409" cy="464"></circle><circle r="18" cx="85" cy="501"></circle><circle r="8" cx="36" cy="180"></circle><circle r="15" cx="767" cy="563"></circle><circle r="18" cx="839" cy="423"></circle><circle r="10" cx="297" cy="397"></circle><circle r="11" cx="133" cy="262"></circle><circle r="16" cx="157" cy="442"></circle><circle r="12" cx="58" cy="574"></circle><circle r="14" cx="348" cy="511"></circle><circle r="11" cx="872" cy="491"></circle><circle r="14" cx="255" cy="541"></circle><circle r="9" cx="553" cy="195"></circle><circle r="18" cx="566" cy="75"></circle><circle r="11" cx="366" cy="254"></circle><circle r="15" cx="645" cy="129"></circle><circle r="17" cx="370" cy="206"></circle><circle r="17" cx="641" cy="357"></circle><circle r="21" cx="181" cy="103"></circle><circle r="18" cx="697" cy="172"></circle><circle r="10" cx="871" cy="240"></circle><circle r="20" cx="38" cy="232"></circle><circle r="13" cx="453" cy="502"></circle></g></svg>