<svg id="visual" viewBox="0 0 900 600" width="900" height="600" xmlns="http://www.w3.org/2000/svg" xmlns:xlink="http://www.w3.org/1999/xlink" version="1.1"><rect x="0" y="0" width="900" height="600" fill="#1a1e23"></rect><defs><linearGradient id="grad1_0" x1="33.3%" y1="0%" x2="100%" y2="100%"><stop offset="20%" stop-color="#1a1e23" stop-opacity="1"></stop><stop offset="80%" stop-color="#1a1e23" stop-opacity="1"></stop></linearGradient></defs><defs><linearGradient id="grad2_0" x1="0%" y1="0%" x2="66.7%" y2="100%"><stop offset="20%" stop-color="#1a1e23" stop-opacity="1"></stop><stop offset="80%" stop-color="#1a1e23" stop-opacity="1"></stop></linearGradient></defs><g transform="translate(900, 0)"><path d="M0 243.4C-22.7 227.4 -45.4 211.5 -64.6 198.8C-83.8 186.1 -99.5 176.6 -123.4 169.9C-147.4 163.2 -179.7 159.4 -196.9 143.1C-214.1 126.7 -216.4 97.9 -221.6 72C-226.8 46.1 -235.1 23 -243.4 0L0 0Z" fill="#12f7d5"></path></g><g transform="translate(0, 600)"><path d="M0 -243.4C26.2 -242.2 52.4 -241.1 75.2 -231.5C98 -221.8 117.5 -203.7 134 -184.5C150.6 -165.2 164.2 -144.9 170.7 -124C177.2 -103.1 176.4 -81.6 187.4 -60.9C198.3 -40.1 220.8 -20.1 243.4 0L0 0Z" fill="#12f7d5"></path></g></svg>