<svg id="visual" viewBox="0 0 900 600" width="900" height="600" xmlns="http://www.w3.org/2000/svg" xmlns:xlink="http://www.w3.org/1999/xlink" version="1.1"><rect x="0" y="0" width="900" height="600" fill="#001220"></rect><path d="M0 354L18.8 365C37.7 376 75.3 398 112.8 414.7C150.3 431.3 187.7 442.7 225.2 440C262.7 437.3 300.3 420.7 337.8 410.2C375.3 399.7 412.7 395.3 450.2 395.8C487.7 396.3 525.3 401.7 562.8 409.5C600.3 417.3 637.7 427.7 675.2 424.3C712.7 421 750.3 404 787.8 406C825.3 408 862.7 429 881.3 439.5L900 450L900 601L881.3 601C862.7 601 825.3 601 787.8 601C750.3 601 712.7 601 675.2 601C637.7 601 600.3 601 562.8 601C525.3 601 487.7 601 450.2 601C412.7 601 375.3 601 337.8 601C300.3 601 262.7 601 225.2 601C187.7 601 150.3 601 112.8 601C75.3 601 37.7 601 18.8 601L0 601Z" fill="#008651"></path><path d="M0 436L18.8 439.3C37.7 442.7 75.3 449.3 112.8 446.2C150.3 443 187.7 430 225.2 425.2C262.7 420.3 300.3 423.7 337.8 422.7C375.3 421.7 412.7 416.3 450.2 413.2C487.7 410 525.3 409 562.8 416.8C600.3 424.7 637.7 441.3 675.2 447.7C712.7 454 750.3 450 787.8 450.2C825.3 450.3 862.7 454.7 881.3 456.8L900 459L900 601L881.3 601C862.7 601 825.3 601 787.8 601C750.3 601 712.7 601 675.2 601C637.7 601 600.3 601 562.8 601C525.3 601 487.7 601 450.2 601C412.7 601 375.3 601 337.8 601C300.3 601 262.7 601 225.2 601C187.7 601 150.3 601 112.8 601C75.3 601 37.7 601 18.8 601L0 601Z" fill="#06aa79"></path><path d="M0 464L18.8 465.7C37.7 467.3 75.3 470.7 112.8 481.3C150.3 492 187.7 510 225.2 510.7C262.7 511.3 300.3 494.7 337.8 483.3C375.3 472 412.7 466 450.2 470C487.7 474 525.3 488 562.8 495.2C600.3 502.3 637.7 502.7 675.2 497.3C712.7 492 750.3 481 787.8 482.8C825.3 484.7 862.7 499.3 881.3 506.7L900 514L900 601L881.3 601C862.7 601 825.3 601 787.8 601C750.3 601 712.7 601 675.2 601C637.7 601 600.3 601 562.8 601C525.3 601 487.7 601 450.2 601C412.7 601 375.3 601 337.8 601C300.3 601 262.7 601 225.2 601C187.7 601 150.3 601 112.8 601C75.3 601 37.7 601 18.8 601L0 601Z" fill="#0cd0a5"></path><path d="M0 558L18.8 551.2C37.7 544.3 75.3 530.7 112.8 525.5C150.3 520.3 187.7 523.7 225.2 529.7C262.7 535.7 300.3 544.3 337.8 541.7C375.3 539 412.7 525 450.2 524C487.7 523 525.3 535 562.8 535C600.3 535 637.7 523 675.2 519C712.7 515 750.3 519 787.8 525.7C825.3 532.3 862.7 541.7 881.3 546.3L900 551L900 601L881.3 601C862.7 601 825.3 601 787.8 601C750.3 601 712.7 601 675.2 601C637.7 601 600.3 601 562.8 601C525.3 601 487.7 601 450.2 601C412.7 601 375.3 601 337.8 601C300.3 601 262.7 601 225.2 601C187.7 601 150.3 601 112.8 601C75.3 601 37.7 601 18.8 601L0 601Z" fill="#12f7d5"></path></svg>